# xmcd
#
# Track frame offsets:
#	150
#	9583
#	20901
#	29579
#	52556
#	65402
#	76604
#	82063
#	101069
#	111592
#
# Disc length: 1613 seconds
#
# Revision: 1
# Processed by: cddbd v1.5.2PL0 Copyright (c) Steve Scherf et al.
# Submitted via: audiograbber 1.83.01
#
DISCID=7a064b0a
DTITLE=Bill Garrison - Gone But Not Forgotten
DYEAR=2014
DGENRE=Blues
TTITLE0=Tune For Emily
TTITLE1=Long Way To Go
TTITLE2=Give The Drummer Some
TTITLE3=So Long, Ron
TTITLE4=J.J.
TTITLE5=Feelin' Our Way
TTITLE6=Nothing New
TTITLE7=Rough Cut
TTITLE8=Gone But Not Forgotten
TTITLE9=Somewhere Over The Rainbow
EXTD=
EXTT0=
EXTT1=
EXTT2=
EXTT3=
EXTT4=
EXTT5=
EXTT6=
EXTT7=
EXTT8=
EXTT9=
PLAYORDER=
